<svg version="1.1" xmlns="http://www.w3.org/2000/svg" xmlns:xlink="http://www.w3.org/1999/xlink" preserveAspectRatio="xMidYMid meet" viewBox="468 162 260 193"><g data-item-type="image" data-item="Image" data-logo-item="" id="logo__item--logo_0" class="logo__item">
    <g class="logo__item__inner" transform="translate(534.0765569154573 189) scale(0.08909348036271081 0.08909348036271081) rotate(0 0 0)">
        
<g>
	<path fill="none" d="M1073.7,764.9c-0.5,25.8,14.8,141.7-117.2,172.3c-97.4,22.6-122.6,56.5-129.1,72.7   c116.9,64.7,204.8,92.8,259.1,69.3c45.6-19.8,66.4-59.3,47.7-194.2c-8.1-58.8-4.3-111.2,14.6-149.8c-5.7-1.7-12.5-3.2-20.8-4   C1097.2,727.8,1074.2,739.1,1073.7,764.9z M1116.9,845.1c3,85.1,42.6,203.2-60.7,221.4c-103.3,18.2-180.9-57.4-180.9-57.4   s67.5,47.4,153.5,33.5c94.5-15.2,72.9-91.2,69.9-185.4c-3-94.2,30.7-115.1,30.7-115.1S1113.8,760,1116.9,845.1z" data-part-id="logo__item--logo_0__0"></path>
	<path fill="#B0BF91" d="M1313.4,670.2c28.4,47.9,75.1,5.5,75.1,5.5C1340.2,630.2,1313.4,670.2,1313.4,670.2z" data-part-id="logo__item--logo_0__1"></path>
	<path fill="#B0BF91" d="M1263.9,681.7c17.9,48.2,73.1,34.7,73.1,34.7C1305.5,669.4,1263.9,681.7,1263.9,681.7z" data-part-id="logo__item--logo_0__2"></path>
	<path fill="#B0BF91" d="M1220.3,701.1c11.1,61.6,80.2,57.1,80.2,57.1C1272.7,695.3,1220.3,701.1,1220.3,701.1z" data-part-id="logo__item--logo_0__3"></path>
	<path fill="#B0BF91" d="M1236.6,605.6c-46.4,24.9-38.8,64.6-38.8,64.6C1244.2,658,1236.6,605.6,1236.6,605.6z" data-part-id="logo__item--logo_0__4"></path>
	<path fill="#B0BF91" d="M1287.3,598c-46.4,24.9-38.7,64.6-38.7,64.6C1294.8,650.4,1287.3,598,1287.3,598z" data-part-id="logo__item--logo_0__5"></path>
	<path fill="#B0BF91" d="M1324.6,614.3c-34.6,18.6-28.9,48.1-28.9,48.1C1330.2,653.4,1324.6,614.3,1324.6,614.3z" data-part-id="logo__item--logo_0__6"></path>
	<linearGradient id="logo__item--logo_0__7" gradientUnits="objectBoundingBox" x1="0.5" y1="0" x2="0.5" y2="1"><stop offset="0" style="stop-color:#f2d634"></stop><stop offset="1" style="stop-color:#999999"></stop></linearGradient><path fill="url(#logo__item--logo_0__7)" d="M613.8,478.3C792,550.8,883.4,625.7,906.9,699.8c0,0,11.1-107.4-194.6-203.8   c-153.8-72-349.9-220.5-423.8-310.7c-73.8-90.2-79-124-79-124s-28.8,62.8,41,161C320.4,320.6,435.5,405.9,613.8,478.3z" data-part-id="logo__item--logo_0__7"></path>
	<linearGradient id="logo__item--logo_0__8" gradientUnits="objectBoundingBox" x1="0.5" y1="0" x2="0.5" y2="1"><stop offset="0" style="stop-color:#333333"></stop><stop offset="1" style="stop-color:#999999"></stop></linearGradient><path fill="url(#logo__item--logo_0__8)" d="M717.3,605.5c0,0-32.6-49.9-165.1-115.9C419.7,423.6,321.7,364,306.5,327c0,0,0.7,83.7,83.2,133.6   C472.3,510.5,685.2,560.4,717.3,605.5z" data-part-id="logo__item--logo_0__8"></path>
	<linearGradient id="logo__item--logo_0__9" gradientUnits="objectBoundingBox" x1="0.5" y1="0" x2="0.5" y2="1"><stop offset="0" style="stop-color:#333333"></stop><stop offset="1" style="stop-color:#999999"></stop></linearGradient><path fill="url(#logo__item--logo_0__9)" d="M498,602.3c88.2,27.4,178.7,61.2,203.2,80.5c0,0-44.9-59.6-127.6-96.6c-82.8-37-164.2-61.2-177.6-82.1   C395.9,504.1,409.8,574.9,498,602.3z" data-part-id="logo__item--logo_0__9"></path>
	<linearGradient id="logo__item--logo_0__10" gradientUnits="objectBoundingBox" x1="0.5" y1="0" x2="0.5" y2="1"><stop offset="0" style="stop-color:#333333"></stop><stop offset="1" style="stop-color:#999999"></stop></linearGradient><path fill="url(#logo__item--logo_0__10)" d="M742.8,388.1c8.9-21.5,8.9-21.5,8.9-21.5s-15.7,31.9,67.1,123.7c82.8,91.8,85.3,110,99.5,154.4   c0,0-9.3-86-77.8-175.7c-68.5-89.7-93.3-150.2-93.3-150.2s-57.6,76.2-10.9,151.3C736.3,470.2,733.9,409.6,742.8,388.1z" data-part-id="logo__item--logo_0__10"></path>
	<linearGradient id="logo__item--logo_0__11" gradientUnits="objectBoundingBox" x1="0.5" y1="0" x2="0.5" y2="1"><stop offset="0" style="stop-color:#333333"></stop><stop offset="1" style="stop-color:#999999"></stop></linearGradient><path fill="url(#logo__item--logo_0__11)" d="M535.1,710.1c56.1,12.9,125.7,32.2,142.8,41.9c0,0-41.9-30.6-104.6-61.2c-62.8-30.6-92.5-22.5-105.5-54.7   C467.7,636.1,479,697.3,535.1,710.1z" data-part-id="logo__item--logo_0__11"></path>
	<filter id="logo__item--logo_0__12_Effect" x="-100%" y="-100%" width="300%" height="300%"><feGaussianBlur in="SourceGraphic" stdDeviation="1" result="glow"></feGaussianBlur><feOffset in="SourceAlpha" dx="0.00" dy="0.00" result="offsetShadow"></feOffset><feGaussianBlur in="offsetShadow" stdDeviation="7" result="shadow"></feGaussianBlur><feMerge><feMergeNode in="glow"></feMergeNode><feMergeNode in="shadow"></feMergeNode><feMergeNode in="SourceGraphic"></feMergeNode></feMerge></filter><linearGradient id="logo__item--logo_0__12" gradientUnits="objectBoundingBox" x1="0.5" y1="0" x2="0.5" y2="1"><stop offset="0" style="stop-color:#a09d9d"></stop><stop offset="1" style="stop-color:#f3df6b"></stop></linearGradient><path fill="url(#logo__item--logo_0__12)" d="M787.6,908.1c94.6-33.8,88.6-152.9,88.6-152.9s-26.8,143.3-150.6,130.4C602,872.7,515.2,735.9,515.2,735.9   C583.6,866.3,693,941.9,787.6,908.1z" data-part-id="logo__item--logo_0__12" vector-effect="non-scaling-stroke" stroke="#000000" stroke-width="1" data-filter-shadow="" data-filter-shadow-distance="0" data-filter-shadow-angle="45" filter="url(#logo__item--logo_0__12_Effect)" data-filter-glow="" data-filter-glow-thickness="1"></path>
	<linearGradient id="logo__item--logo_0__13" gradientUnits="objectBoundingBox" x1="0.5" y1="0" x2="0.5" y2="1"><stop offset="0" style="stop-color:#333333"></stop><stop offset="1" style="stop-color:#999999"></stop></linearGradient><path fill="url(#logo__item--logo_0__13)" d="M553.1,1020.8c72.9-41.9,76.6-98.2,76.6-98.2s-5.3,57.7-96.5,78.6c-91.2,20.9-128.4-28.2-128.4-28.2   s-34.8,144.3,38.8,155.6c73.6,11.3,163.2-110.2,163.2-110.2s-74.2,72.4-127,75.6c-52.8,3.2-49.7-63.6-49.7-63.6   S480.2,1062.6,553.1,1020.8z" data-part-id="logo__item--logo_0__13"></path>
	<path fill="#CAB5E8" d="M810,948c1.3-1.6,2.5-3.2,3.9-4.5C813.9,943.5,812.2,945,810,948z" data-part-id="logo__item--logo_0__14"></path>
	<path fill="#CAB5E8" d="M810,948c-7.4,9.5-13.6,24.3-17.5,42c2.7,1.6,5.2,3,7.9,4.5C797.8,969.3,805.2,954.7,810,948z" data-part-id="logo__item--logo_0__15"></path>
	<linearGradient id="logo__item--logo_0__16" gradientUnits="objectBoundingBox" x1="0.5" y1="0" x2="0.5" y2="1"><stop offset="0" style="stop-color:#333333"></stop><stop offset="1" style="stop-color:#999999"></stop></linearGradient><path fill="url(#logo__item--logo_0__16)" d="M808.8,1110.9c55.2,90.2,101.5,91.9,101.5,91.9c-16.3,29-90,32.2-122-27.4c-32-59.6-37.5-143.3-37.5-143.3   c-22.1,127.2,37.3,233.4,112.1,239.9c74.7,6.4,108.9-95.3,108.9-95.3s-64,16.5-133.1-89.8c-19.1-29.3-29.3-53.2-34.4-72.6   c-4.7-3.3-9.5-6.6-14.3-9.9C785.2,1038.2,789.1,1078.7,808.8,1110.9z" data-part-id="logo__item--logo_0__16"></path>
	<linearGradient id="logo__item--logo_0__17" gradientUnits="objectBoundingBox" x1="0.5" y1="0" x2="0.5" y2="1"><stop offset="0" style="stop-color:#333333"></stop><stop offset="1" style="stop-color:#999999"></stop></linearGradient><path fill="url(#logo__item--logo_0__17)" d="M732.5,1088.4c-37.7,132,9,186.8,9,186.8s-57.9,31.3-80.4-22.6c-16.6-39.9,36.8-186.7,36.8-186.7   c-81.7,132.6-81.3,207.7-35.7,243.1c45.6,35.4,176.4-21.2,176.4-21.2C743.1,1279.9,732.5,1088.4,732.5,1088.4z" data-part-id="logo__item--logo_0__17"></path>
	<linearGradient id="logo__item--logo_0__18" gradientUnits="objectBoundingBox" x1="0.5" y1="0" x2="0.5" y2="1"><stop offset="0" style="stop-color:#333333"></stop><stop offset="1" style="stop-color:#999999"></stop></linearGradient><path fill="url(#logo__item--logo_0__18)" d="M615.3,1207.2c16.9-69.2,79.7-168.7,79.7-168.7c-149.8,122.3-135.9,223.8-135.9,223.8   c-44.1-6.4-74.6-82.1-74.6-82.1s23-11.3,71.4-56.3c48.4-45.1,89.5-128.8,89.5-128.8s-28.3,53.1-93.5,106.3   c-65.3,53.1-114.1,47.1-114.1,47.1s-1.6,75.2,69.7,128.4c53,39.5,126.7,43.6,126.7,43.6S598.4,1276.5,615.3,1207.2z" data-part-id="logo__item--logo_0__18"></path>
	<path fill="#B0BF91" d="M1171,743.8c30.2-82.4,135.4-72.9,135.4-72.9c-70.1-10.6-116.5,7.2-144.1,43   C1168.2,721.1,1172.2,730.8,1171,743.8z" data-part-id="logo__item--logo_0__19"></path>
	<linearGradient id="logo__item--logo_0__20" gradientUnits="objectBoundingBox" x1="0.5" y1="0" x2="0.5" y2="1"><stop offset="0" style="stop-color:#f2d634"></stop><stop offset="1" style="stop-color:#ebe509"></stop></linearGradient><path fill="url(#logo__item--logo_0__20)" d="M1170.3,745.5c-1.8-1.5-8.4-6.5-21.4-10.4c-19,38.6-22.7,91-14.6,149.8c18.6,134.9-2.2,174.4-47.7,194.2   c-54.2,23.5-142.2-4.6-259.1-69.3c-2.3,5.8-2.3,9.4-2.3,9.4s-0.6-4.3-0.5-10.9c-7.9-4.4-16-9.1-24.2-13.8c-2.7-1.5-5.2-3-7.9-4.5   c-44.5-26-92.7-56.6-144.5-91.1c-228.6-152.5-390-30.4-371.4,90.6c18.6,121,152.8,190.9,152.8,190.9s-91.6-68.7-116.3-158.2   c-38-137.5,144-230,311.5-129.9c57.2,34.2,112,74.8,165.3,112.1c4.8,3.3,9.5,6.6,14.3,9.9c97.4,67.1,190.1,119.7,283.5,96.4   c148.9-37.2,60.5-232.6,76.8-342C1165.7,760.1,1167.8,752.6,1170.3,745.5z" data-part-id="logo__item--logo_0__20"></path>
	<linearGradient id="logo__item--logo_0__21" gradientUnits="objectBoundingBox" x1="0.5" y1="0" x2="0.5" y2="1"><stop offset="0" style="stop-color:#333333"></stop><stop offset="1" style="stop-color:#999999"></stop></linearGradient><path fill="url(#logo__item--logo_0__21)" d="M825,1019.2c0,0,0-3.6,2.3-9.4c6.5-16.3,31.7-50.2,129.1-72.7c132-30.6,116.7-146.5,117.2-172.3   c0.5-25.8,23.5-37,54.4-33.8c8.3,0.9,15.1,2.3,20.8,4c13,3.9,19.7,8.9,21.4,10.4c0.3,0.3,0.5,0.5,0.5,0.5c0.1-0.8,0.1-1.5,0.1-2.2   c1.2-13-2.8-22.8-8.7-29.9c-11.5-13.9-29.9-18.3-29.9-18.3c0.2-29-14.9-76.3-76.2-77.9c-61.3-1.6-98.6,45.4-98.6,45.4   c39.3-24.1,139.4-44.7,147.5,2c8.1,46.7-49.5,49.9-48.9,101.4c0.6,51.5-23.5,128.8-134.2,148.1c-86.3,15.1-96.9,70.1-97.4,93.7   C824.4,1014.9,825,1019.2,825,1019.2z" data-part-id="logo__item--logo_0__21"></path>
	<path fill="#B0BF91" d="M392.9,1195.7c-132.4-110.3-172.8-257-84.7-334.5c88.1-77.5,234.5-39.5,234.5-39.5   c-132.2-57.7-285.7-10.6-306.9,126.1c-21.3,136.7,62.3,218.8,176.3,306.9c114,88.1,103.3,153.5,103.3,153.5   S550.4,1326.9,392.9,1195.7z" data-part-id="logo__item--logo_0__22"></path>
	<path fill="#B0BF91" d="M1098.6,857.3c3,94.2,24.6,170.2-69.9,185.4c-86,13.8-153.5-33.5-153.5-33.5s77.5,75.7,180.9,57.4   c103.3-18.2,63.8-136.4,60.7-221.4c-3-85.1,12.5-103,12.5-103S1095.6,763,1098.6,857.3z" data-part-id="logo__item--logo_0__23"></path>
</g>

    </g>
</g><g data-item-type="shape" data-item="Shape" data-logo-item="" id="logo__item--shape_1" class="logo__item">
    <g class="logo__item__inner" transform="translate(461.1500015258789 125.45000076293945) scale(2.707577426270026 2.707577426270026) rotate(0 0 0)">
        
<g>
	<path fill="#a19d9d" d="M62.6,81.6c0.1,0,0.2-0.1,0.3-0.1c-0.1,0-0.2,0-0.3,0C62.6,81.6,62.6,81.6,62.6,81.6z" data-part-id="logo__item--shape_1__0"></path>
	<linearGradient id="logo__item--shape_1__1" gradientUnits="objectBoundingBox" x1="0.5" y1="0" x2="0.5" y2="1"><stop offset="0" style="stop-color:#333333"></stop><stop offset="1" style="stop-color:#999999"></stop></linearGradient><path fill="#a19d9d" d="M84.8,65c-33.7,11.5-69,0-69,0l-2.4,12.4c13.3,4.5,26,5.6,37,5.6h0.1c22,0,37.3-5.6,37.3-5.6L84.8,65z    M62.6,81.6c0,0,0,0-0.1-0.1c0.1,0,0.2,0,0.3,0C62.8,81.5,62.7,81.6,62.6,81.6z" data-part-id="logo__item--shape_1__1"></path>
	<path fill="#a19d9d" d="M16.7,50.3c-0.2-2.6-2.5-2.3-2.5-2.3C14.2,51.2,16.7,50.2,16.7,50.3z" data-part-id="logo__item--shape_1__2"></path>
	<path fill="#a19d9d" d="M19.9,48.6c0,0-2.4-1.1-2.8,1.8C17.2,50.4,19.4,50.9,19.9,48.6z" data-part-id="logo__item--shape_1__3"></path>
	<path fill="#a19d9d" d="M17.2,47.1c-0.2,1.3-0.2,2.6-0.3,3.9L17.2,47.1z" data-part-id="logo__item--shape_1__4"></path>
	<path fill="#a19d9d" d="M17,46.3c0-2.6-2.3-2.6-2.3-2.6C14.4,47,17,46.3,17,46.3z" data-part-id="logo__item--shape_1__5"></path>
	<path fill="#a19d9d" d="M20.4,45c0,0-2.3-1.4-2.9,1.5C17.5,46.5,19.7,47.2,20.4,45z" data-part-id="logo__item--shape_1__6"></path>
	<path fill="#a19d9d" d="M17.9,43.2c-0.4,1.3-0.5,2.6-0.7,3.9L17.9,43.2z" data-part-id="logo__item--shape_1__7"></path>
	<path fill="#a19d9d" d="M17.8,42.4c0.3-2.6-1.9-2.8-1.9-2.8C15.1,42.7,17.9,42.4,17.8,42.4z" data-part-id="logo__item--shape_1__8"></path>
	<path fill="#a19d9d" d="M18.3,42.6c0,0,2.1,1,3.1-1.1C21.4,41.5,19.2,39.8,18.3,42.6z" data-part-id="logo__item--shape_1__9"></path>
	<path fill="#a19d9d" d="M19,39.5c-0.5,1.2-0.9,2.5-1.2,3.8L19,39.5z" data-part-id="logo__item--shape_1__10"></path>
	<linearGradient id="logo__item--shape_1__11" gradientUnits="objectBoundingBox" x1="0.5" y1="0" x2="0.5" y2="1"><stop offset="0" style="stop-color:#333333"></stop><stop offset="1" style="stop-color:#999999"></stop></linearGradient><path fill="#a19d9d" d="M19.1,38.6c0.7-2.5-1.5-3-1.6-3C16.3,38.6,19.1,38.6,19.1,38.6z" data-part-id="logo__item--shape_1__11"></path>
	<path fill="#a19d9d" d="M22.7,38.2c0,0-1.9-1.9-3.2,0.7C19.5,38.9,21.3,40.1,22.7,38.2z" data-part-id="logo__item--shape_1__12"></path>
	<path fill="#a19d9d" d="M20.6,35.9C20,37,19.4,38.2,19,39.5L20.6,35.9z" data-part-id="logo__item--shape_1__13"></path>
	<path fill="#a19d9d" d="M20.7,35c1-2.4-1.2-3.2-1.2-3.2C18,34.7,20.8,35,20.7,35z" data-part-id="logo__item--shape_1__14"></path>
	<path fill="#a19d9d" d="M24.4,35c0,0-1.6-2.1-3.3,0.3C21.1,35.3,22.9,36.8,24.4,35z" data-part-id="logo__item--shape_1__15"></path>
	<path fill="#a19d9d" d="M22.6,32.4c-0.7,1.1-1.4,2.2-2,3.4L22.6,32.4z" data-part-id="logo__item--shape_1__16"></path>
	<path fill="#a19d9d" d="M22.9,31.7c1.3-2.3-0.8-3.3-0.8-3.3C20.2,31,22.9,31.6,22.9,31.7z" data-part-id="logo__item--shape_1__17"></path>
	<path fill="#a19d9d" d="M26.5,32.1c0,0-1.4-2.3-3.3,0C23.2,32,24.8,33.7,26.5,32.1z" data-part-id="logo__item--shape_1__18"></path>
	<path fill="#a19d9d" d="M25,29.3c-0.9,1-1.6,2.1-2.4,3.1L25,29.3z" data-part-id="logo__item--shape_1__19"></path>
	<path fill="#a19d9d" d="M25.4,28.6c1.5-2.2-0.4-3.4-0.5-3.4C22.8,27.6,25.4,28.6,25.4,28.6z" data-part-id="logo__item--shape_1__20"></path>
	<path fill="#a19d9d" d="M28.9,29.4c0,0.1-1.1-2.5-3.2-0.4C25.6,29,27,30.8,28.9,29.4z" data-part-id="logo__item--shape_1__21"></path>
	<path fill="#a19d9d" d="M27.8,26.5c-1,0.9-1.9,1.8-2.8,2.8L27.8,26.5z" data-part-id="logo__item--shape_1__22"></path>
	<path fill="#a19d9d" d="M28.2,25.8c1.7-2,0-3.4,0-3.4C25.7,24.5,28.2,25.8,28.2,25.8z" data-part-id="logo__item--shape_1__23"></path>
	<path fill="#a19d9d" d="M31.6,27c0,0-0.8-2.6-3.2-0.8C28.4,26.2,29.5,28.2,31.6,27z" data-part-id="logo__item--shape_1__24"></path>
	<path fill="#a19d9d" d="M27.8,26.5l3.1-2.5C29.7,24.8,28.7,25.6,27.8,26.5z" data-part-id="logo__item--shape_1__25"></path>
	<path fill="#a19d9d" d="M31.3,23.3c2-1.7,0.4-3.4,0.4-3.4C29,21.8,31.4,23.4,31.3,23.3z" data-part-id="logo__item--shape_1__26"></path>
	<path fill="#a19d9d" d="M34.6,25c0,0-0.5-2.6-3.1-1.2C31.5,23.8,32.4,25.9,34.6,25z" data-part-id="logo__item--shape_1__27"></path>
	<path fill="#a19d9d" d="M30.8,24l3.3-2.1C33,22.6,31.8,23.2,30.8,24z" data-part-id="logo__item--shape_1__28"></path>
	<path fill="#a19d9d" d="M35.5,18c-2.8,1.6-0.7,3.3-0.8,3.3C36.9,19.9,35.5,18,35.5,18z" data-part-id="logo__item--shape_1__29"></path>
	<path fill="#a19d9d" d="M34.9,21.8c0,0,0.6,2.2,2.9,1.5C37.8,23.3,37.6,20.6,34.9,21.8z" data-part-id="logo__item--shape_1__30"></path>
	<path fill="#a19d9d" d="M34.1,21.9l3.6-1.7C36.5,20.7,35.3,21.3,34.1,21.9z" data-part-id="logo__item--shape_1__31"></path>
	<path fill="#a19d9d" d="M39.5,16.5c-3,1.3-1.1,3.2-1.1,3.2C40.7,18.5,39.5,16.5,39.5,16.5z" data-part-id="logo__item--shape_1__32"></path>
	<path fill="#a19d9d" d="M38.4,20.2c0,0,0.4,2.3,2.7,1.8C41.1,22,41.3,19.3,38.4,20.2z" data-part-id="logo__item--shape_1__33"></path>
	<path fill="#a19d9d" d="M37.7,20.2l3.7-1.2C40.2,19.2,38.9,19.8,37.7,20.2z" data-part-id="logo__item--shape_1__34"></path>
	<path fill="#a19d9d" d="M43.7,15.5c-3.1,0.8-1.5,3.1-1.5,3.1C44.6,17.5,43.7,15.5,43.7,15.5z" data-part-id="logo__item--shape_1__35"></path>
	<path fill="#a19d9d" d="M42.2,19c0,0,0.1,2.3,2.5,2.2C44.6,21.2,45.1,18.4,42.2,19z" data-part-id="logo__item--shape_1__36"></path>
	<path fill="#a19d9d" d="M41.4,18.9l3.9-0.8C44,18.3,42.7,18.6,41.4,18.9z" data-part-id="logo__item--shape_1__37"></path>
	<path fill="#a19d9d" d="M47.9,14.9c-3.2,0.4-1.8,2.9-1.9,2.8C48.6,17.1,48,15,47.9,14.9z" data-part-id="logo__item--shape_1__38"></path>
	<path fill="#a19d9d" d="M48.2,20.7c0,0,0.8-2.6-2.2-2.5C46,18.3,45.8,20.5,48.2,20.7z" data-part-id="logo__item--shape_1__39"></path>
	<path fill="#a19d9d" d="M45.3,18.1l3.9-0.4C47.9,17.9,46.6,17.9,45.3,18.1z" data-part-id="logo__item--shape_1__40"></path>
	<path fill="#a19d9d" d="M52.2,14.9c-3.2,0-2.2,2.6-2.2,2.6C52.6,17.2,52.2,14.9,52.2,14.9z" data-part-id="logo__item--shape_1__41"></path>
	<path fill="#a19d9d" d="M51.8,20.7c0,0,1.1-2.5-1.9-2.7C49.9,18,49.5,20.2,51.8,20.7z" data-part-id="logo__item--shape_1__42"></path>
	<path fill="#a19d9d" d="M49.2,17.8l3.9,0.1C51.9,17.9,50.5,17.7,49.2,17.8z" data-part-id="logo__item--shape_1__43"></path>
	<path fill="#a19d9d" d="M56.5,15.4c-3.2-0.3-2.5,2.3-2.5,2.3C56.6,17.8,56.5,15.4,56.5,15.4z" data-part-id="logo__item--shape_1__44"></path>
	<path fill="#a19d9d" d="M55.4,21.1c0,0,1.4-2.3-1.6-2.9C53.8,18.2,53.1,20.4,55.4,21.1z" data-part-id="logo__item--shape_1__45"></path>
	<path fill="#a19d9d" d="M53.2,17.9l3.9,0.6C55.8,18.2,54.5,18,53.2,17.9z" data-part-id="logo__item--shape_1__46"></path>
	<path fill="#a19d9d" d="M57.9,18.4c2.6,0.3,2.8-2,2.8-2C57.5,15.7,57.9,18.4,57.9,18.4z" data-part-id="logo__item--shape_1__47"></path>
	<path fill="#a19d9d" d="M58.9,21.9c0,0,1.6-2.1-1.2-3.1C57.7,18.9,56.7,21,58.9,21.9z" data-part-id="logo__item--shape_1__48"></path>
	<path fill="#a19d9d" d="M57.1,18.5l3.8,1.1C59.7,19,58.3,18.8,57.1,18.5z" data-part-id="logo__item--shape_1__49"></path>
	<path fill="#a19d9d" d="M64.7,17.9c-3.1-1-3,1.7-3,1.7C64.3,20.1,64.7,17.9,64.7,17.9z" data-part-id="logo__item--shape_1__50"></path>
	<path fill="#a19d9d" d="M62.3,23.1c0,0,1.9-2-0.8-3.2C61.4,20,60.2,22,62.3,23.1z" data-part-id="logo__item--shape_1__51"></path>
	<path fill="#a19d9d" d="M60.9,19.5l3.7,1.5C63.4,20.4,62.1,20,60.9,19.5z" data-part-id="logo__item--shape_1__52"></path>
	<path fill="#a19d9d" d="M68.5,19.8c-2.9-1.4-3.1,1.4-3.1,1.3C67.8,22,68.5,19.9,68.5,19.8z" data-part-id="logo__item--shape_1__53"></path>
	<path fill="#a19d9d" d="M65.5,24.8c0,0,2.1-1.7-0.4-3.3C65,21.6,63.6,23.3,65.5,24.8z" data-part-id="logo__item--shape_1__54"></path>
	<path fill="#a19d9d" d="M64.5,21l3.5,1.9C66.9,22.2,65.7,21.5,64.5,21z" data-part-id="logo__item--shape_1__55"></path>
	<path fill="#a19d9d" d="M72.1,22.2c-2.7-1.8-3.3,1-3.3,0.9C71.1,24.4,72.1,22.2,72.1,22.2z" data-part-id="logo__item--shape_1__56"></path>
	<path fill="#a19d9d" d="M68.5,26.8c0,0,2.3-1.4,0-3.3C68.4,23.5,66.8,25.1,68.5,26.8z" data-part-id="logo__item--shape_1__57"></path>
	<path fill="#a19d9d" d="M68,22.9l3.2,2.3C70.1,24.4,69.2,23.5,68,22.9z" data-part-id="logo__item--shape_1__58"></path>
	<path fill="#a19d9d" d="M75.3,25c-2.5-2-3.3,0.6-3.4,0.5C74.1,27,75.3,25,75.3,25z" data-part-id="logo__item--shape_1__59"></path>
	<path fill="#a19d9d" d="M71.6,25.8c0,0-1.8,1.4-0.3,3.3C71.2,29.1,73.7,28,71.6,25.8z" data-part-id="logo__item--shape_1__60"></path>
	<path fill="#a19d9d" d="M71.2,25.2l2.9,2.7C73.2,26.9,72.2,26.1,71.2,25.2z" data-part-id="logo__item--shape_1__61"></path>
	<path fill="#a19d9d" d="M74.8,28.3c2,1.7,3.4-0.1,3.4-0.2C76,25.8,74.8,28.3,74.8,28.3z" data-part-id="logo__item--shape_1__62"></path>
	<path fill="#a19d9d" d="M74.4,28.5c0,0-2,1.2-0.7,3.2C73.7,31.7,76.3,30.9,74.4,28.5z" data-part-id="logo__item--shape_1__63"></path>
	<path fill="#a19d9d" d="M74.1,27.9l2.6,3C75.9,29.8,75,28.8,74.1,27.9z" data-part-id="logo__item--shape_1__64"></path>
	<path fill="#a19d9d" d="M77.4,31.4c1.8,1.9,3.4,0.3,3.4,0.3C78.8,29,77.3,31.4,77.4,31.4z" data-part-id="logo__item--shape_1__65"></path>
	<path fill="#a19d9d" d="M76.9,31.6c0,0-2.1,0.9-1.1,3.1C75.8,34.7,78.5,34.1,76.9,31.6z" data-part-id="logo__item--shape_1__66"></path>
	<path fill="#a19d9d" d="M76.7,30.9l2.2,3.3C78.2,33,77.5,31.9,76.7,30.9z" data-part-id="logo__item--shape_1__67"></path>
	<path fill="#a19d9d" d="M79.5,34.7c1.5,2.1,3.3,0.7,3.3,0.7C81.3,32.5,79.5,34.7,79.5,34.7z" data-part-id="logo__item--shape_1__68"></path>
	<path fill="#a19d9d" d="M77.6,37.8c0,0,2.7-0.3,1.5-3C79,34.9,76.9,35.5,77.6,37.8z" data-part-id="logo__item--shape_1__69"></path>
	<path fill="#a19d9d" d="M78.9,34.1l1.8,3.5C80.1,36.5,79.6,35.2,78.9,34.1z" data-part-id="logo__item--shape_1__70"></path>
	<path fill="#a19d9d" d="M81.2,38.3c1.2,2.3,3.2,1.1,3.2,1.1C83.2,36.4,81.3,38.3,81.2,38.3z" data-part-id="logo__item--shape_1__71"></path>
	<path fill="#a19d9d" d="M79,41.1c0,0,2.7,0.1,1.8-2.8C80.8,38.4,78.5,38.8,79,41.1z" data-part-id="logo__item--shape_1__72"></path>
	<path fill="#a19d9d" d="M80.7,37.6l1.4,3.7C81.7,40.1,81.2,38.8,80.7,37.6z" data-part-id="logo__item--shape_1__73"></path>
	<path fill="#a19d9d" d="M82.5,42c1,2.4,3.1,1.5,3.1,1.4C84.7,40.4,82.5,42.1,82.5,42z" data-part-id="logo__item--shape_1__74"></path>
	<path fill="#a19d9d" d="M79.9,44.6c0,0,2.7,0.4,2.1-2.5C82,42.1,79.7,42.2,79.9,44.6z" data-part-id="logo__item--shape_1__75"></path>
	<path fill="#a19d9d" d="M82.1,41.3l0.9,3.8C82.8,43.9,82.4,42.6,82.1,41.3z" data-part-id="logo__item--shape_1__76"></path>
	<path fill="#a19d9d" d="M83.4,45.9c0.8,2.5,2.9,1.8,2.9,1.8C85.7,44.5,83.3,45.9,83.4,45.9z" data-part-id="logo__item--shape_1__77"></path>
	<path fill="#a19d9d" d="M80.5,48.2c-0.1,0,2.6,0.7,2.4-2.3C82.9,45.9,80.5,45.8,80.5,48.2z" data-part-id="logo__item--shape_1__78"></path>
	<path fill="#a19d9d" d="M83,45.2l0.5,3.9C83.4,47.8,83.2,46.5,83,45.2z" data-part-id="logo__item--shape_1__79"></path>
	<path fill="#a19d9d" d="M83.7,49.9c0.5,2.6,2.6,2.1,2.7,2.1C86.2,48.8,83.7,49.9,83.7,49.9z" data-part-id="logo__item--shape_1__80"></path>
	<path fill="#a19d9d" d="M80.6,51.8c-0.1,0,2.6,1,2.6-2C83.2,49.8,81,49.4,80.6,51.8z" data-part-id="logo__item--shape_1__81"></path>
	<path fill="#a19d9d" d="M86,56.3c0.3-3.2-2.5-2.4-2.4-2.4C83.7,56.5,86,56.3,86,56.3z" data-part-id="logo__item--shape_1__82"></path>
	<path fill="#a19d9d" d="M80.3,55.4c0,0,2.4,1.3,2.9-1.6C83.1,53.7,81,53.1,80.3,55.4z" data-part-id="logo__item--shape_1__83"></path>
	<path fill="#a19d9d" d="M83,57c0.2-1.3,0.4-2.6,0.5-3.9L83,57z" data-part-id="logo__item--shape_1__84"></path>
	<path fill="#a19d9d" d="M83.1,57.8c-0.3,2.6,2.1,2.7,2.1,2.7C85.8,57.3,83.1,57.8,83.1,57.8z" data-part-id="logo__item--shape_1__85"></path>
	<path fill="#a19d9d" d="M82.7,57.6c0,0-2.1-0.9-3.1,1.3C79.6,58.9,81.8,60.4,82.7,57.6z" data-part-id="logo__item--shape_1__86"></path>
	<path fill="#a19d9d" d="M82.1,60.8c0.3-1.3,0.7-2.5,0.9-3.8L82.1,60.8z" data-part-id="logo__item--shape_1__87"></path>
	<path fill="#a19d9d" d="M83.8,64.5c0.9-3.1-1.8-2.9-1.8-2.9C81.5,64.2,83.8,64.6,83.8,64.5z" data-part-id="logo__item--shape_1__88"></path>
	<path fill="#a19d9d" d="M78.5,62.3c0,0,2,1.8,3.2-0.9C81.6,61.4,79.6,60.2,78.5,62.3z" data-part-id="logo__item--shape_1__89"></path>
	<path fill="#a19d9d" d="M80.7,64.5L80.7,64.5c0.5-1.2,0.9-2.4,1.4-3.7L80.7,64.5z" data-part-id="logo__item--shape_1__90"></path>
	<path fill="#a19d9d" d="M19.8,64.5L19,62.7C19.2,63.3,19.5,63.9,19.8,64.5L19.8,64.5z" data-part-id="logo__item--shape_1__91"></path>
	<path fill="#a19d9d" d="M18.5,62c-1.2-2.4-3.1-1.3-3.2-1.3C16.4,63.8,18.5,61.9,18.5,62z" data-part-id="logo__item--shape_1__92"></path>
	<path fill="#a19d9d" d="M20.9,59.3c0.1,0-2.7-0.2-2,2.6C19,61.9,21.2,61.6,20.9,59.3z" data-part-id="logo__item--shape_1__93"></path>
	<path fill="#a19d9d" d="M17.9,58.9c0.3,1.3,0.7,2.5,1.2,3.8L17.9,58.9z" data-part-id="logo__item--shape_1__94"></path>
	<path fill="#a19d9d" d="M14.4,56.5c0.7,3.2,3,1.6,3,1.6C16.6,55.7,14.5,56.5,14.4,56.5z" data-part-id="logo__item--shape_1__95"></path>
	<path fill="#a19d9d" d="M20.2,55.7c0,0-2.6-0.5-2.3,2.4C18,58.2,20.2,58.1,20.2,55.7z" data-part-id="logo__item--shape_1__96"></path>
	<path fill="#a19d9d" d="M17.2,55c0.2,1.3,0.3,2.6,0.7,3.9L17.2,55z" data-part-id="logo__item--shape_1__97"></path>
	<path fill="#a19d9d" d="M16.8,54.2c-0.5-2.6-2.8-2-2.8-2C14.4,55.5,16.8,54.2,16.8,54.2z" data-part-id="logo__item--shape_1__98"></path>
	<path fill="#a19d9d" d="M19.8,52.2c0,0-2.5-0.9-2.6,2.1C17.3,54.3,19.6,54.5,19.8,52.2z" data-part-id="logo__item--shape_1__99"></path>
	<path fill="#a19d9d" d="M16.9,51.1c0.1,1.3,0.1,2.6,0.3,3.9L16.9,51.1z" data-part-id="logo__item--shape_1__100"></path>
	<linearGradient id="logo__item--shape_1__101" gradientUnits="objectBoundingBox" x1="0.5" y1="0" x2="0.5" y2="1"><stop offset="0" style="stop-color:#333333"></stop><stop offset="1" style="stop-color:#999999"></stop></linearGradient><path fill="#a19d9d" d="M13.9,69C6.2,70.2,3.8,73,3.8,73c0.4,1,4.3,3.2,4.3,3.2C6.7,79.2,6,83.9,6,83.9c6.6-4.3,11.4-3.7,11.4-3.7   L12,78.6L13.9,69z" data-part-id="logo__item--shape_1__101"></path>
	<linearGradient id="logo__item--shape_1__102" gradientUnits="objectBoundingBox" x1="0.5" y1="0" x2="0.5" y2="1"><stop offset="0" style="stop-color:#f3df6b"></stop><stop offset="1" style="stop-color:#5f4de2"></stop></linearGradient><path fill="#a19d9d" d="M97.5,73.2c0,0-2.6-2.9-10.3-4.1l2.2,9.6L84,80.3c0,0,4.8-0.6,11.4,3.7c0,0-0.8-4.7-2.2-7.6   C93.2,76.4,97.1,74.1,97.5,73.2z" data-part-id="logo__item--shape_1__102"></path>
</g>

    </g>
</g><g data-item-type="text" data-item="Business" id="logo__item--business" class="logo__item">
                <g class="logo__item__inner" transform="translate(550.46875 337.1489292586673) scale(0.5829353572717079 0.5829353572717079) rotate(0.07230385429977892 107.22796702390946 21.74253873636463)">
                    <filter id="logo__item--business_Effect" x="-100%" y="-100%" width="300%" height="300%"><feOffset in="SourceAlpha" dx="0.00" dy="0.00" result="offsetShadow"></feOffset><feGaussianBlur in="offsetShadow" stdDeviation="2" result="shadow"></feGaussianBlur><feGaussianBlur in="SourceGraphic" stdDeviation="1" result="glow"></feGaussianBlur><feMerge><feMergeNode in="shadow"></feMergeNode><feMergeNode in="glow"></feMergeNode><feMergeNode in="SourceGraphic"></feMergeNode></feMerge></filter><text data-part-id="logo__item--business" dy="0" dominant-baseline="auto" alignment-baseline="auto" font-family="PT Sans" font-size="32px" fill="#f3df6b" letter-spacing="0" font-weight="bold" font-style="italic" data-font-family="PT Sans" data-font-weight="bold" data-font-style="italic" data-ttf-url="/builder_assets/fontsttf/font-montserrat-bold-normal.ttf" data-font-filename="pt-sans-bold-italic" filter="url(#logo__item--business_Effect)" data-filter-glow="" data-filter-glow-thickness="1" data-filter-shadow="" data-filter-shadow-distance="0" data-filter-shadow-angle="63" vector-effect="non-scaling-stroke" stroke="#000000" stroke-width="1">NJCP Family</text>
                </g>
            </g></svg>